# xmcd CD database file
#
# Track frame offsets:
#	150
#	20620
#	42920
#
# Disc length: 842 seconds
#
# Revision: 3
# Processed by: cddbd v1.5.1PL0 Copyright (c) Steve Scherf et al.
# Submitted via: CDex 1.51
#
DISCID=1d034803
DTITLE=加藤いづみ - 好きになって、よかった
DYEAR=1993
DGENRE=J-POP
TTITLE0=好きになって、よかった
TTITLE1=彼がやって来る
TTITLE2=好きになって，よかった（オリジナル・カラオケ）
EXTD=YEAR: 1993
EXTT0=
EXTT1=
EXTT2=
PLAYORDER=
